<svg xmlns="http://www.w3.org/2000/svg" version="1.1" xmlns:xlink="http://www.w3.org/1999/xlink" xmlns:svgjs="http://svgjs.dev/svgjs" viewBox="0 0 800 800"><defs><linearGradient x1="50%" y1="0%" x2="50%" y2="100%" id="ccchaos-grad"><stop stop-color="hsl(184, 74%, 44%)" stop-opacity="1" offset="0%"></stop><stop stop-color="hsl(332, 87%, 70%)" stop-opacity="1" offset="100%"></stop></linearGradient></defs><g stroke-width="2" stroke="url(#ccchaos-grad)" fill="none" stroke-linecap="round"><path d="M419.85 104.48C430.19 106.97 440.6 110.24 451.06 114.13 461.5 118.1 471.94 122.46 482.27 127.05 492.5 131.38 502.49 135.77 512.11 140.13 521.44 144.01 530.18 147.8 538.15 151.47 548.82 156.17 563.71 164.78 567.66 169.02 569.9 173.14 571.65 182.99 573.43 189.02 576.39 193.31 580.83 198.15 587.17 203.53 595.83 209.1 606.57 215.22 619.25 221.85 633.47 228.69 648.52 236.02 663.51 243.78 677.55 251.72 689.56 260.05 698.5 268.69 703.99 277.47 705.3 286.52 702.3 295.76 696.07 305.09 686.87 314.58 675.94 324.16 665.43 333.79 656.23 343.47 649.79 353.15 647.7 362.85 649.95 372.53 656.48 382.14 666.92 391.75 679.22 401.05 691.64 410.02 703.13 419 711.51 427.65 715.72 436 715.73 444.36 710.94 452.44 701.91 460.25 689.81 468.13 675.49 475.82 660.29 483.33 645.53 491.01 632.14 498.62 620.9 506.21 612.46 514.08 606.79 522.04 603.66 530.16 603.12 538.66 604.17 547.42 606.09 556.46 608.86 565.96 611.19 575.77 612.52 585.88 613.11 596.37 611.98 607.07 609.03 617.89 604.73 628.84 598.64 639.67 590.97 650.18 582.19 660.39 572.25 669.95 561.48 678.6 550.11 686.44 538.34 693.03 526.39 698.15 514.29 702.08 502.26 704.34 490.46 704.85 478.7 704.15 467.23 701.81 456.11 697.95 445.07 693.33 434.36 687.65 423.98 681.19 413.65 674.86 403.62 668.41 393.89 662.19 384.16 657.07 374.93 652.82 366.19 649.6 357.41 647.91 349.08 647.29 341.2 647.64 333.25 649.31 325.71 651.62 318.53 654.31 311.22 657.68 304.2 660.93 297.41 663.79 290.36 666.59 283.4 668.55 276.47 669.51 269.11 669.86 261.64 668.96 253.98 666.78 245.82 663.76 237.4 659.46 228.76 653.95 219.7 647.66 210.52 640.31 201.35 632.07 192.13 623.26 183.2 613.77 174.78 603.76 166.82 593.44 159.69 582.78 153.57 571.93 148.23 560.98 144 549.95 140.89 538.94 138.38 527.95 136.73 517.04 135.73 506.25 134.7 495.53 133.82 484.94 132.9 474.49 131.26 464.11 129.25 453.86 126.85 443.74 123.63 433.67 120.22 423.69 116.83 413.84 113.31 404 110.41 394.25 108.44 384.6 107.21 374.96 107.35 365.63 108.85 356.65 111.19 347.65 114.65 338.99 118.96 330.67 123.43 322.35 128.2 314.38 132.98 306.78 137.15 299.17 140.99 291.92 144.42 285.05 147.02 278.14 149.34 271.6 151.51 265.39 153.29 259.12 155.34 253.15 157.88 247.46 160.68 241.62 164.33 235.99 168.92 230.54 174.18 224.85 180.47 219.25 187.72 213.71 195.62 207.83 204.3 201.94 213.61 196.02 223.27 189.71 233.31 183.34 243.55 176.92 253.82 170.15 264.11 163.38 274.36 156.67 284.42 149.75 294.38 143.02 304.22 136.59 313.83 130.2 323.36 124.28 332.87 118.97 342.18 113.99 351.55 109.81 361.02 106.52 370.38 103.79 379.93 102.08 389.72 101.44 399.46 101.41 409.5 102.43 419.84 104.48" stroke-dasharray="7 4" transform="rotate(0, 400, 400)" opacity="0.84"></path><path d="M422.42 115.21C432.42 117.66 442.33 120.86 452.11 124.68 461.86 128.58 471.42 132.86 480.7 137.4 489.85 141.71 498.59 146.1 506.79 150.49 514.72 154.44 521.94 158.31 528.32 162.09 536.77 166.99 548.09 175.93 551.11 180.25 553.39 184.34 558.01 193.75 562.45 199.36 567.38 203.28 573.87 207.7 582.15 212.6 592.39 217.64 604.31 223.18 617.6 229.21 631.78 235.41 646.17 242.08 659.9 249.17 672.24 256.41 682.26 264.04 689.12 272.01 692.71 280.09 692.45 288.46 688.4 297.06 681.68 305.74 672.58 314.6 662.22 323.59 652.59 332.63 644.37 341.75 638.81 350.92 637.27 360.11 639.67 369.31 645.94 378.5 655.77 387.69 667.31 396.63 679.06 405.31 690.13 414 698.54 422.44 703.3 430.63 704.34 438.86 700.97 446.87 693.57 454.7 683.09 462.61 670.16 470.39 655.93 478.08 641.57 485.93 627.94 493.78 615.85 501.66 606 509.81 598.53 518.08 593.41 526.52 590.8 535.3 589.99 544.31 590.41 553.58 592.09 563.21 593.89 573.09 595.29 583.18 596.48 593.53 596.47 603.99 595.05 614.44 592.64 624.9 588.63 635.13 583.12 644.94 576.59 654.37 568.79 663.08 559.98 670.85 550.48 677.82 540.32 683.55 529.74 687.87 518.84 691.1 507.79 692.77 496.75 692.83 485.63 691.83 474.65 689.34 463.9 685.48 453.18 681 442.71 675.56 432.54 669.43 422.39 663.45 412.53 657.36 402.97 651.47 393.41 646.57 384.34 642.45 375.75 639.25 367.11 637.43 358.89 636.57 351.08 636.59 343.17 637.85 335.59 639.71 328.3 641.97 320.83 644.92 313.56 647.82 306.41 650.44 298.97 653.11 291.53 655.09 284.03 656.23 276.14 656.9 268.08 656.48 259.83 654.92 251.17 652.65 242.33 649.2 233.33 644.62 224.11 639.32 214.9 633 205.85 625.78 196.94 618.01 188.48 609.5 180.66 600.42 173.41 591 167.07 581.16 161.76 571.04 157.21 560.76 153.71 550.33 151.24 539.84 149.25 529.32 147.98 518.8 147.23 508.36 146.31 497.95 145.45 487.62 144.44 477.42 142.67 467.27 140.51 457.24 137.93 447.34 134.58 437.48 131.05 427.74 127.57 418.12 123.98 408.53 121.02 399.05 118.98 389.71 117.68 380.36 117.73 371.36 119.13 362.7 121.38 354.03 124.76 345.71 129.02 337.74 133.51 329.75 138.34 322.11 143.25 314.82 147.63 307.51 151.71 300.54 155.39 293.91 158.24 287.23 160.75 280.86 163.03 274.8 164.79 268.63 166.68 262.72 168.88 257.05 171.18 251.2 174.17 245.52 177.96 239.97 182.3 234.17 187.6 228.43 193.84 222.72 200.73 216.69 208.46 210.64 216.91 204.56 225.82 198.12 235.24 191.64 245.01 185.15 254.97 178.35 265.09 171.59 275.27 164.93 285.41 158.13 295.52 151.54 305.56 145.28 315.47 139.11 325.29 133.44 335.06 128.38 344.69 123.66 354.3 119.72 363.94 116.66 373.49 114.13 383.12 112.58 392.85 112.06 402.55 112.12 412.41 113.17 422.41 115.21" stroke-dasharray="9 0" transform="rotate(4.04, 400, 400)" opacity="0.76"></path><path d="M421.32 125.94C430.9 128.35 440.23 131.48 449.27 135.21 458.28 139.02 466.94 143.23 475.17 147.7 483.27 151.97 490.85 156.35 497.79 160.75 504.5 164.75 510.48 168.71 515.64 172.58 522.54 177.66 532.01 186.96 535.09 191.4 538.28 195.53 546.94 204.67 554.17 209.96 560.96 213.6 569.22 217.66 579.03 222.16 590.36 226.74 602.91 231.79 616.27 237.28 629.93 242.9 643.25 248.96 655.43 255.43 665.93 262.03 673.93 269.01 678.82 276.33 680.69 283.75 679.09 291.47 674.22 299.44 667.22 307.48 658.35 315.74 648.66 324.15 639.91 332.61 632.64 341.19 627.9 349.86 626.87 358.55 629.4 367.3 635.4 376.08 644.63 384.87 655.44 393.48 666.52 401.9 677.14 410.32 685.5 418.57 690.69 426.64 692.62 434.75 690.55 442.72 684.69 450.57 675.84 458.51 664.4 466.39 651.32 474.24 637.66 482.24 624.17 490.28 611.64 498.4 600.78 506.75 591.84 515.24 584.97 523.9 580.4 532.85 577.66 542 576.37 551.35 576.58 560.98 577.36 570.78 578.23 580.71 579.37 590.79 579.81 600.87 579.28 610.84 578.17 620.71 575.75 630.27 572.02 639.32 567.46 647.94 561.65 655.79 554.77 662.69 547.21 668.8 538.83 673.72 529.82 677.3 520.43 679.87 510.66 681.02 500.69 680.69 490.56 679.43 480.39 676.83 470.28 673.02 460.14 668.68 450.13 663.49 440.32 657.69 430.53 652.06 420.93 646.32 411.57 640.74 402.2 636.08 393.26 632.09 384.72 628.91 376.15 626.98 367.92 625.91 360.01 625.64 352 626.51 344.24 627.95 336.67 629.78 328.91 632.3 321.25 634.84 313.63 637.19 305.73 639.68 297.77 641.61 289.71 642.84 281.32 643.73 272.78 643.69 264.08 642.65 255.1 641.01 246.02 638.31 236.92 634.56 227.76 630.18 218.76 624.82 210.08 618.58 201.7 611.81 193.89 604.3 186.84 596.17 180.41 587.67 174.92 578.71 170.45 569.4 166.68 559.89 163.88 550.15 161.99 540.28 160.44 530.33 159.47 520.33 158.88 510.34 158.01 500.34 157.08 490.4 155.95 480.54 154.02 470.7 151.68 460.97 148.93 451.35 145.45 441.77 141.81 432.29 138.25 422.96 134.62 413.64 131.61 404.44 129.52 395.39 128.16 386.34 128.12 377.64 129.4 369.29 131.55 360.92 134.82 352.9 139 345.21 143.46 337.51 148.34 330.13 153.34 323.09 157.9 316.01 162.21 309.25 166.16 302.79 169.31 296.26 172.07 290 174.53 284.01 176.39 277.9 178.24 271.99 180.25 266.28 182.19 260.38 184.64 254.61 187.75 248.94 191.26 243.02 195.63 237.13 200.86 231.27 206.69 225.09 213.38 218.9 220.82 212.69 228.78 206.16 237.36 199.62 246.39 193.08 255.74 186.31 265.37 179.6 275.19 173.03 285.1 166.38 295.07 159.97 305.03 153.92 314.97 148 324.86 142.58 334.68 137.78 344.44 133.33 354.14 129.65 363.79 126.81 373.4 124.49 383 123.1 392.58 122.7 402.15 122.83 411.73 123.91 421.31 125.93" stroke-dasharray="3 10" transform="rotate(8.08, 400, 400)" opacity="0.60"></path><path d="M416.73 136.66C425.81 139.03 434.53 142.09 442.84 145.72 451.11 149.44 458.93 153.56 466.23 157.95 473.42 162.17 480.03 166.52 485.99 170.91 494.35 176.96 507.4 188.18 512.24 193.33 516.72 197.86 525.42 206.66 530.9 211.19 535.78 214.11 541.6 217.28 548.56 220.76 556.92 224.18 566.55 227.97 577.4 232.14 589.31 236.35 601.94 240.97 614.86 246 627.58 251.11 639.5 256.64 649.94 262.56 658.52 268.57 664.56 274.95 667.63 281.67 667.98 288.48 665.29 295.59 659.81 302.97 652.72 310.41 644.22 318.08 635.25 325.94 627.39 333.84 621.04 341.9 617.07 350.1 616.5 358.3 619.13 366.62 624.86 375.03 633.51 383.43 643.61 391.73 654.01 399.9 664.16 408.07 672.4 416.14 677.9 424.1 680.6 432.1 679.69 440.03 675.28 447.89 668.02 455.85 658.12 463.79 646.35 471.75 633.65 479.86 620.63 488.04 608.05 496.31 596.58 504.78 586.56 513.39 578.25 522.16 571.94 531.15 567.36 540.3 564.28 549.6 562.81 559.09 562.21 568.69 562.09 578.31 562.6 587.99 562.88 597.59 562.61 606.98 562.15 616.19 560.74 625.01 558.28 633.26 555.25 641.05 551.1 648.05 545.91 654.09 540.14 659.38 533.48 663.53 526.09 666.43 518.29 668.42 509.95 669.09 501.23 668.43 492.31 666.96 483.16 664.3 473.89 660.55 464.56 656.37 455.21 651.45 445.91 645.97 436.61 640.68 427.38 635.28 418.26 630.02 409.15 625.58 400.35 621.73 391.84 618.58 383.3 616.57 375.02 615.31 366.94 614.77 358.78 615.28 350.76 616.32 342.84 617.74 334.76 619.84 326.7 622.01 318.61 624.06 310.3 626.32 301.9 628.14 293.4 629.38 284.66 630.41 275.8 630.64 266.87 630 257.81 628.9 248.75 626.83 239.81 623.82 230.97 620.26 222.44 615.78 214.36 610.46 206.69 604.65 199.69 598.09 193.51 590.91 187.97 583.36 183.36 575.3 179.73 566.84 176.69 558.15 174.52 549.18 173.12 540.01 171.93 530.73 171.16 521.33 170.64 511.88 169.74 502.4 168.71 492.92 167.39 483.48 165.28 474.05 162.75 464.69 159.83 455.42 156.24 446.17 152.51 437.02 148.88 428 145.23 418.99 142.19 410.1 140.06 401.35 138.65 392.59 138.52 384.18 139.68 376.11 141.7 368.02 144.84 360.25 148.9 352.82 153.31 345.35 158.17 338.19 163.24 331.34 167.96 324.44 172.49 317.82 176.7 311.47 180.15 305.04 183.22 298.84 185.94 292.87 188 286.76 189.93 280.83 191.89 275.04 193.62 269.07 195.71 263.19 198.28 257.39 201.09 251.34 204.63 245.32 208.92 239.31 213.72 233.02 219.34 226.72 225.71 220.41 232.6 213.84 240.15 207.27 248.26 200.74 256.74 194.03 265.62 187.43 274.78 180.99 284.15 174.52 293.67 168.33 303.27 162.52 312.94 156.86 322.61 151.72 332.24 147.2 341.87 143.02 351.45 139.59 360.93 136.99 370.41 134.87 379.82 133.64 389.12 133.34 398.43 133.55 407.64 134.66 416.72 136.66" stroke-dasharray="1 2" transform="rotate(12.12, 400, 400)" opacity="0.54"></path><path d="M409.4 147.39C417.94 149.7 426.05 152.68 433.69 156.21 441.3 159.84 448.4 163.85 454.97 168.15 461.46 172.31 467.38 176.61 472.71 180.98 480.3 187.07 492.75 198.53 497.97 203.85 503.36 208.58 515.42 217.67 523.18 222.26 529.61 225.17 536.97 228.29 545.37 231.66 554.89 234.94 565.41 238.53 576.76 242.44 588.71 246.35 600.93 250.63 612.96 255.28 624.4 259.96 634.7 265.03 643.3 270.46 649.97 275.96 654.17 281.81 655.6 288 654.67 294.24 651.12 300.8 645.27 307.63 638.24 314.51 630.21 321.64 622.01 328.99 615.04 336.37 609.57 343.94 606.31 351.69 606.16 359.44 608.86 367.35 614.32 375.39 622.41 383.44 631.82 391.43 641.56 399.36 651.2 407.3 659.25 415.19 664.97 423.03 668.29 430.91 668.41 438.77 665.33 446.63 659.59 454.56 651.24 462.53 640.89 470.54 629.34 478.68 617.08 486.91 604.81 495.24 593.14 503.73 582.46 512.35 573.09 521.1 565.34 530.01 559.12 539.04 554.34 548.15 551.14 557.38 548.98 566.63 547.54 575.83 546.99 585.01 546.58 594.03 546.01 602.75 545.6 611.25 544.59 619.29 542.83 626.72 540.78 633.68 537.81 639.83 533.94 645.06 529.64 649.57 524.47 653.01 518.53 655.28 512.24 656.75 505.31 657.01 497.86 656.08 490.21 654.45 482.18 651.75 473.87 648.1 465.48 644.09 456.91 639.43 448.23 634.28 439.53 629.32 430.76 624.26 421.97 619.29 413.18 615.08 404.56 611.37 396.12 608.28 387.65 606.2 379.31 604.78 371.09 603.99 362.79 604.17 354.55 604.84 346.34 605.87 337.99 607.56 329.62 609.35 321.19 611.08 312.61 613.07 303.94 614.73 295.2 615.92 286.34 617.01 277.43 617.41 268.54 617.08 259.66 616.38 250.91 614.85 242.4 612.46 234.12 609.62 226.27 605.93 218.98 601.45 212.17 596.53 206.09 590.89 200.85 584.61 196.22 577.99 192.47 570.83 189.62 563.24 187.25 555.41 185.61 547.24 184.6 538.82 183.66 530.27 183 521.55 182.47 512.72 181.48 503.83 180.27 494.89 178.75 485.95 176.44 477 173.71 468.08 170.63 459.21 166.93 450.36 163.13 441.58 159.47 432.9 155.81 424.23 152.76 415.66 150.6 407.22 149.14 398.78 148.92 390.65 149.95 382.83 151.83 375 154.82 367.47 158.73 360.24 163.05 352.99 167.87 346 172.95 339.3 177.78 332.53 182.5 326.01 186.95 319.73 190.73 313.36 194.12 307.18 197.14 301.19 199.48 295.06 201.61 289.07 203.65 283.2 205.34 277.14 207.22 271.16 209.43 265.23 211.72 259.08 214.57 252.94 218.06 246.82 221.93 240.45 226.53 234.08 231.84 227.72 237.62 221.15 244.08 214.61 251.12 208.14 258.56 201.54 266.48 195.08 274.77 188.82 283.32 182.57 292.13 176.63 301.09 171.08 310.19 165.71 319.37 160.87 328.55 156.63 337.8 152.74 347 149.57 356.12 147.19 365.26 145.27 374.3 144.2 383.19 144 392.1 144.28 400.85 145.41 409.39 147.38" stroke-dasharray="7 6" transform="rotate(16.16, 400, 400)" opacity="0.97"></path><path d="M400.53 158.11C408.52 160.37 416.06 163.26 423.13 166.68 430.18 170.2 436.75 174.11 442.82 178.29 448.85 182.38 454.39 186.62 459.44 190.95 464.5 195.01 469.14 199.1 473.4 203.16 479.89 208.71 492.79 219.09 499.97 224.01 505.52 226.99 511.64 230.05 518.47 233.21 526.19 236.15 534.75 239.27 544.16 242.58 554.37 245.78 565.24 249.24 576.57 252.97 588.07 256.66 599.43 260.67 610.23 265.01 620.15 269.35 628.69 274.04 635.42 279.06 641.53 286.82 638.75 304.01 630.63 313.38 623.83 319.75 616.36 326.39 608.96 333.27 602.86 340.17 598.22 347.29 595.63 354.61 595.84 361.93 598.6 369.46 603.79 377.16 611.33 384.86 620.07 392.56 629.15 400.25 638.26 407.95 646.07 415.65 651.9 423.35 655.73 431.09 656.73 438.86 654.86 446.65 650.55 454.52 643.71 462.44 634.83 470.43 624.58 478.53 613.33 486.72 601.67 495 590.2 503.4 579.26 511.92 569.22 520.51 560.41 529.22 552.86 538 546.59 546.8 541.74 555.64 537.98 564.44 535.09 573.12 533.2 581.71 531.73 590.07 530.41 598.08 529.5 605.82 528.34 613.05 526.73 619.66 523.93 628.47 514.45 640.77 507.66 643.88 502.62 644.87 496.92 644.79 490.65 643.63 484.18 641.88 477.24 639.19 469.9 635.65 462.47 631.84 454.72 627.44 446.72 622.61 438.7 617.97 430.48 613.23 422.08 608.57 413.69 604.57 405.33 601.01 397.02 597.98 388.7 595.85 380.4 594.3 372.12 593.3 363.79 593.18 355.45 593.5 347.07 594.15 338.62 595.45 330.12 596.86 321.55 598.26 312.92 599.97 304.23 601.42 295.52 602.5 286.8 603.56 278.12 604.06 269.57 603.93 261.14 603.55 252.95 602.43 245.12 600.57 237.62 598.33 230.63 595.33 224.26 591.6 218.41 587.48 213.29 582.68 209 577.26 205.25 571.52 202.3 565.24 200.14 558.5 198.33 551.53 197.11 544.19 196.37 536.55 195.57 528.77 194.94 520.76 194.31 512.6 193.16 504.37 191.75 496.03 189.99 487.64 187.47 479.23 184.56 470.8 181.32 462.4 177.53 453.99 173.69 445.62 170 437.32 166.35 429.03 163.32 420.81 161.14 412.68 159.64 404.56 159.33 396.71 160.23 389.15 161.96 381.57 164.77 374.26 168.51 367.22 172.69 360.15 177.42 353.31 182.48 346.72 187.38 340.07 192.24 333.62 196.91 327.38 200.98 321.04 204.7 314.86 208.07 308.83 210.75 302.68 213.16 296.63 215.4 290.67 217.19 284.54 219.04 278.46 221.07 272.43 223.02 266.2 225.38 259.99 228.24 253.79 231.32 247.39 235.04 241 239.38 234.65 244.1 228.13 249.47 221.67 255.42 215.31 261.74 208.87 268.59 202.59 275.85 196.55 283.41 190.55 291.29 184.89 299.4 179.63 307.71 174.57 316.15 170.03 324.66 166.08 333.27 162.48 341.89 159.57 350.45 157.41 359.06 155.69 367.57 154.77 375.94 154.68 384.33 155.02 392.54 156.17 400.52 158.11" stroke-dasharray="9 11" transform="rotate(20.200000000000003, 400, 400)" opacity="0.48"></path><path d="M391.58 168.84C399.02 171.04 406.06 173.84 412.7 177.14 419.33 180.55 425.54 184.33 431.35 188.4 437.16 192.39 442.59 196.55 447.69 200.82 452.85 204.86 457.76 208.95 462.48 213.03 467.42 216.81 472.32 220.56 477.31 224.28 482.71 227.68 488.4 231.07 494.49 234.46 501.21 237.57 508.51 240.73 516.46 243.96 525.11 246.97 534.43 250.12 544.34 253.43 554.73 256.59 565.45 259.97 576.25 263.59 586.88 267.13 597.04 270.95 606.35 275.05 614.59 279.12 621.35 283.51 626.27 288.2 629.98 295.4 624.29 311.37 615.98 320.09 609.53 326.02 602.7 332.22 596.11 338.67 590.85 345.13 587 351.83 585.01 358.76 585.54 365.69 588.33 372.85 593.25 380.22 600.27 387.59 608.35 395 616.79 402.44 625.36 409.9 632.87 417.39 638.73 424.93 642.93 432.49 644.68 440.11 643.87 447.79 640.87 455.52 635.49 463.33 628.09 471.22 619.23 479.18 609.16 487.23 598.39 495.35 587.44 503.56 576.64 511.85 566.35 520.18 556.89 528.58 548.38 536.98 540.92 545.36 534.66 553.71 529.42 561.97 525.07 570.04 521.74 577.97 519 585.62 516.63 592.87 513.95 603.04 508.29 619.68 504.53 625.69 500.1 629.92 487.93 632.63 480.22 631.11 474.75 629.29 468.75 626.63 462.29 623.22 455.75 619.61 448.8 615.48 441.49 610.96 434.16 606.64 426.51 602.22 418.58 597.84 410.65 594.07 402.63 590.66 394.56 587.7 386.5 585.54 378.36 583.87 370.17 582.69 361.97 582.3 353.7 582.3 345.38 582.61 337.03 583.53 328.62 584.57 320.18 585.64 311.75 587.04 303.31 588.25 294.93 589.17 286.63 590.15 278.47 590.66 270.51 590.66 262.78 590.48 255.38 589.68 248.42 588.23 241.84 586.49 235.83 584.07 230.46 580.98 223.51 575.55 213.96 561.25 211.25 552.61 209.87 546.47 208.95 539.94 208.37 533.08 207.6 526.08 206.89 518.81 206.1 511.35 204.74 503.8 203.09 496.1 201.08 488.31 198.35 480.49 195.26 472.6 191.9 464.69 188.04 456.77 184.17 448.85 180.49 440.96 176.87 433.07 173.86 425.22 171.68 417.42 170.15 409.63 169.76 402.08 170.52 394.76 172.08 387.44 174.7 380.34 178.24 373.47 182.25 366.57 186.85 359.87 191.83 353.38 196.74 346.82 201.69 340.44 206.53 334.22 210.87 327.91 214.91 321.74 218.62 315.68 221.68 309.5 224.44 303.4 226.96 297.37 228.99 291.2 230.95 285.06 232.97 278.96 234.79 272.7 236.86 266.45 239.29 260.23 241.8 253.85 244.8 247.5 248.34 241.21 252.13 234.79 256.5 228.46 261.42 222.26 266.66 216.03 272.41 209.99 278.61 204.2 285.08 198.49 291.93 193.13 299.07 188.18 306.4 183.44 313.95 179.22 321.63 175.57 329.43 172.26 337.29 169.61 345.15 167.67 353.07 166.15 360.95 165.37 368.7 165.37 376.49 165.78 384.13 166.93 391.57 168.83" stroke-dasharray="7 5" transform="rotate(24.24, 400, 400)" opacity="0.49"></path><path d="M384 179.56C390.94 181.7 397.57 184.4 403.9 187.57 410.22 190.86 416.25 194.51 422 198.45 427.78 202.33 433.32 206.4 438.68 210.59 444.14 214.59 449.52 218.66 454.87 222.74 460.46 226.56 466.17 230.37 472.09 234.16 478.41 237.66 485.08 241.16 492.19 244.65 499.81 247.88 507.95 251.14 516.61 254.46 525.74 257.56 535.32 260.77 545.23 264.1 555.31 267.28 565.4 270.64 575.27 274.19 584.71 277.64 593.42 281.33 601.08 285.26 610.12 291.22 617.48 304.49 615.32 311.82 611.99 316.8 607.23 322.06 601.38 327.6 595.38 333.14 589.23 338.95 583.47 345.02 579.02 351.09 575.89 357.42 574.46 363.99 575.27 370.55 578.06 377.36 582.71 384.41 589.22 391.45 596.68 398.57 604.49 405.75 612.5 412.95 619.67 420.21 625.46 427.53 629.92 434.88 632.28 442.31 632.39 449.8 630.58 457.33 626.56 464.95 620.6 472.63 613.17 480.37 604.4 488.18 594.73 496.05 584.6 503.96 574.27 511.91 564.11 519.87 554.42 527.84 545.35 535.78 537.07 543.63 529.72 551.42 523.25 559.06 517.6 566.45 512.89 573.69 508.83 580.59 505.27 587.06 501.02 596.06 493.54 610.39 489.54 615.37 485.3 618.73 474.45 620.29 467.69 618.52 462.93 616.66 457.66 614.06 451.92 610.81 446.11 607.4 439.87 603.54 433.2 599.34 426.52 595.33 419.45 591.21 412.03 587.12 404.61 583.56 397.03 580.31 389.32 577.42 381.62 575.25 373.8 573.5 365.89 572.16 357.99 571.53 350 571.24 341.96 571.24 333.94 571.8 325.89 572.49 317.85 573.23 309.88 574.3 301.96 575.25 294.17 575.98 286.54 576.81 279.12 577.28 271.99 577.32 265.14 577.26 258.69 576.68 252.72 575.54 244.64 573.21 232.21 565.2 227.98 559.57 224.88 553.04 221.42 537.32 220.49 528.35 219.66 522.11 218.8 515.58 217.78 508.82 216.18 501.97 214.27 494.93 212.01 487.76 209.08 480.54 205.83 473.22 202.35 465.84 198.45 458.44 194.58 450.99 190.92 443.54 187.36 436.08 184.39 428.62 182.22 421.17 180.66 413.73 180.2 406.48 180.82 399.42 182.21 392.36 184.62 385.47 187.94 378.78 191.74 372.05 196.17 365.49 201.02 359.09 205.89 352.64 210.88 346.33 215.83 340.14 220.38 333.88 224.7 327.71 228.74 321.63 232.18 315.46 235.32 309.34 238.2 303.28 240.55 297.09 242.77 290.94 244.94 284.83 246.8 278.58 248.79 272.35 250.99 266.17 253.15 259.87 255.67 253.61 258.59 247.43 261.66 241.18 265.21 235.03 269.24 229.05 273.5 223.06 278.25 217.29 283.43 211.8 288.84 206.41 294.64 201.37 300.78 196.75 307.09 192.35 313.67 188.44 320.44 185.1 327.33 182.08 334.35 179.69 341.43 177.97 348.58 176.63 355.73 175.99 362.85 176.08 369.99 176.54 377.05 177.7 383.99 179.56" stroke-dasharray="3 8" transform="rotate(28.28, 400, 400)" opacity="0.56"></path><path d="M379.04 190.29C385.53 192.35 391.84 194.95 397.96 198 404.09 201.15 410.05 204.66 415.87 208.46 421.73 212.22 427.51 216.17 433.23 220.27 439.09 224.2 444.98 228.22 450.97 232.28 457.2 236.11 463.64 239.95 470.34 243.79 477.38 247.37 484.78 250.95 492.56 254.54 500.72 257.88 509.26 261.24 518.16 264.65 527.31 267.85 536.67 271.13 546.09 274.52 555.43 277.74 564.53 281.1 573.15 284.63 581.16 288.04 588.29 291.65 594.27 295.47 600.83 301.22 604.17 313.87 600.85 320.81 597.18 325.5 592.42 330.47 586.89 335.69 581.43 340.9 576 346.37 571.05 352.11 567.37 357.83 564.91 363.82 563.97 370.05 565.03 376.27 567.79 382.75 572.17 389.48 578.19 396.21 585.05 403.03 592.24 409.93 599.69 416.84 606.48 423.83 612.14 430.9 616.75 437.99 619.57 445.16 620.45 452.4 619.68 459.67 616.91 467.01 612.31 474.4 606.31 481.83 598.91 489.31 590.46 496.82 581.37 504.34 571.82 511.86 562.14 519.35 552.61 526.82 543.4 534.2 534.69 541.46 526.64 548.62 519.26 555.58 512.59 562.26 506.7 568.76 501.43 574.9 496.71 580.61 490.77 588.45 480.75 600.62 476.02 604.66 471.4 607.25 460.74 607.84 454.46 605.89 450.11 604.02 445.32 601.51 440.1 598.42 434.83 595.23 429.15 591.64 423.04 587.74 416.92 584.03 410.4 580.21 403.51 576.39 396.62 573.05 389.53 569.95 382.29 567.16 375.07 565 367.71 563.18 360.25 561.71 352.83 560.87 345.32 560.33 337.79 560.04 330.32 560.26 322.85 560.62 315.45 561.04 308.16 561.79 300.99 562.46 294.02 562.97 287.24 563.62 280.73 563.98 274.57 564 265.99 563.76 251.75 560.75 246.31 557.85 241.98 554.14 236.43 543.85 234.92 537.39 233.63 530.25 231.12 513.94 229.29 504.95 227.42 498.79 225.25 492.41 222.74 485.86 219.63 479.26 216.24 472.52 212.68 465.67 208.77 458.81 204.92 451.86 201.32 444.86 197.83 437.85 194.91 430.79 192.76 423.72 191.19 416.64 190.65 409.7 191.14 402.92 192.35 396.12 194.54 389.47 197.61 382.95 201.18 376.42 205.38 370.01 210.06 363.72 214.83 357.39 219.79 351.16 224.79 345.03 229.49 338.83 234.03 332.71 238.35 326.65 242.16 320.51 245.68 314.42 248.95 308.38 251.69 302.23 254.25 296.12 256.68 290.04 258.75 283.87 260.84 277.73 263.02 271.64 265.05 265.47 267.31 259.37 269.87 253.37 272.44 247.33 275.39 241.43 278.74 235.7 282.21 230.01 286.12 224.55 290.42 219.37 294.89 214.32 299.74 209.63 304.94 205.35 310.28 201.29 315.91 197.72 321.79 194.68 327.77 191.95 333.93 189.81 340.23 188.3 346.59 187.14 353.03 186.63 359.52 186.8 366.02 187.31 372.54 188.47 379.03 190.28" stroke-dasharray="7 6" transform="rotate(32.32, 400, 400)" opacity="0.91"></path><path d="M377.51 201.01C383.62 203 389.66 205.49 395.64 208.4 401.64 211.42 407.6 214.78 413.53 218.42 419.52 222.05 425.54 225.87 431.62 229.84 437.83 233.7 444.17 237.65 450.67 241.65 457.38 245.47 464.33 249.31 471.54 253.17 479 256.8 486.77 260.45 494.82 264.1 503.08 267.53 511.59 270.99 520.25 274.48 528.97 277.78 537.67 281.14 546.22 284.58 554.49 287.87 562.31 291.27 569.49 294.8 578.73 300 590.15 311.15 591.66 317.17 590.15 323.34 579.97 336.8 572.57 344.11 567.71 349.05 563.01 354.23 558.84 359.67 555.89 365.09 554.05 370.76 553.55 376.67 554.8 382.58 557.52 388.75 561.63 395.15 567.18 401.56 573.46 408.07 580.04 414.67 586.93 421.27 593.3 427.96 598.77 434.72 603.42 441.5 606.58 448.36 608.09 455.28 608.2 462.21 606.54 469.21 603.21 476.23 598.57 483.27 592.55 490.34 585.41 497.4 577.51 504.44 568.96 511.46 560.05 518.4 551.03 525.29 542.06 532.07 533.33 538.67 524.99 545.16 517.1 551.41 509.74 557.37 502.97 563.13 496.75 568.52 491.03 573.47 483.51 580.21 470.73 590.37 464.98 593.57 459.57 595.49 448.25 595.27 442.02 593.22 435.52 590.17 420.77 581.43 412.47 576.17 406.81 572.74 400.79 569.22 394.42 565.67 388.05 562.54 381.5 559.6 374.81 556.91 368.14 554.77 361.36 552.91 354.5 551.33 347.69 550.32 340.83 549.55 333.99 549 327.23 548.93 320.53 548.97 313.94 549.08 307.49 549.52 301.22 549.91 295.19 550.18 286.61 550.72 271.64 550.53 265.48 549.54 256.51 545.24 248.49 533.77 247.22 528.21 245.92 522.04 242.83 507.73 240.57 499.73 238.43 494.23 235.99 488.49 233.26 482.55 229.99 476.56 226.5 470.4 222.89 464.09 218.99 457.77 215.2 451.32 211.66 444.78 208.26 438.24 205.42 431.61 203.3 424.91 201.72 418.21 201.11 411.61 201.47 405.11 202.5 398.61 204.46 392.2 207.27 385.89 210.57 379.57 214.53 373.33 218.98 367.18 223.59 361 228.45 354.89 233.42 348.85 238.19 342.76 242.89 336.72 247.43 330.73 251.55 324.68 255.43 318.66 259.08 312.69 262.23 306.64 265.19 300.63 267.98 294.66 270.37 288.62 272.7 282.62 275.04 276.7 277.14 270.73 279.37 264.84 281.78 259.08 284.1 253.3 286.7 247.69 289.6 242.26 292.53 236.9 295.81 231.78 299.45 226.96 305.2 220.1 318.55 208.68 326.03 204.32 333.87 200.92 350.65 197.49 359.45 197.55 365.37 198.1 371.39 199.25 377.5 201.01" stroke-dasharray="0 0" transform="rotate(36.36, 400, 400)" opacity="0.41"></path><path d="M379.66 211.74C385.44 213.65 391.27 216.02 397.13 218.79 403.01 221.67 408.96 224.87 414.98 228.34 427.18 235.25 439.93 242.87 453.36 250.86 467.36 258.22 482.29 265.74 497.97 273.32 513.9 280.12 529.91 287.07 544.98 294.22 558.46 300.77 569.17 307.76 575.82 315.28 578.87 322.46 577.17 330.38 571.07 339.07 563.45 347.62 554.63 357.07 546.87 367.4 543.94 375.25 545.92 392.09 551.09 401.1 556.19 407.19 561.9 413.37 567.9 419.63 574.24 425.9 580.17 432.25 585.38 438.67 593.73 451.53 596.51 464.65 593.3 477.83 585.42 490.99 572.89 504.1 557.48 516.84 540.92 529.3 524.24 541.07 508.58 551.7 494.51 561.57 482.1 569.82 471.16 576.02 461.76 580.96 453.02 583.54 444.39 583.58 436.35 582.45 427.68 579.08 418.12 573.74 413.37 570.99 408.34 567.93 403.03 564.62 397.71 561.48 392.11 558.23 386.24 554.94 380.36 552.02 374.36 549.25 368.27 546.67 362.19 544.56 356.05 542.68 349.89 541.03 337.7 539.2 325.65 538.07 314.16 537.38 303.21 537.93 293.25 538.17 284.72 537.71 274.08 536.75 262.18 527.19 259.63 518.17 257.35 511.19 254.82 502.8 251.57 493.23 246.24 483.4 239.91 472.6 232.97 461.07 229.12 455.28 225.41 449.34 221.96 443.26 218.67 437.19 215.92 430.99 213.84 424.69 212.27 418.39 211.59 412.13 211.82 405.94 212.67 399.75 214.39 393.61 216.93 387.54 223.39 375.36 232.01 363.37 241.75 351.61 251.08 339.69 260.14 327.89 268.48 316.27 275.15 304.45 281.11 292.78 286.67 281.42 291.08 269.98 295.85 259 301.32 248.78 306.57 238.87 312.99 230.07 320.6 222.74 328.36 216.24 337.3 211.59 347.23 209.08 354.83 208.13 371.07 209.46 379.65 211.73" stroke-dasharray="7 4" transform="rotate(40.400000000000006, 400, 400)" opacity="0.44"></path><path d="M385.14 222.46C396.13 226.28 407.63 231.67 419.59 238.23 431.73 244.83 444.55 252.15 458.02 259.9 471.8 267.15 486.24 274.62 500.94 282.18 515.43 289.08 529.4 296.14 541.88 303.37 552.56 310.05 560.33 317.09 564.29 324.56 565.28 331.7 562.34 339.45 556.02 347.87 549.01 356.13 541.42 365.18 535.12 375.03 532.92 384.82 534.64 395.47 540.55 406.98 550.74 418.49 561.97 430.35 571.99 442.4 580.3 454.47 584.01 466.71 582.59 478.9 577.11 491.04 567.17 503 554.12 514.47 539.41 525.63 523.84 536.01 508.54 545.22 494.06 553.7 480.74 560.63 468.67 565.65 457.84 569.59 447.83 571.42 438.27 571.02 429.34 569.69 420.23 566.42 410.7 561.45 401.29 556.44 391.16 550.55 380.31 544.22 369.45 539.15 358.43 534.61 347.52 530.8 336.76 528.67 326.38 527.11 316.73 525.93 307.54 525.91 299.41 525.66 292.68 524.89 284.24 523.73 274.63 515.26 271.95 507.41 269.24 501.39 266.12 494.05 262.24 485.56 256.48 476.85 249.9 467.15 242.93 456.66 235.34 446.09 228.81 434.84 224.38 423.06 221.81 411.27 222.62 399.52 226.6 387.93 232.46 376.3 240.5 364.75 249.82 353.36 259.06 341.87 268.32 330.45 277.11 319.22 284.52 307.86 291.28 296.69 297.55 285.87 302.62 275.08 307.77 264.8 313.3 255.31 318.37 246.19 324.3 238.16 331.22 231.56 338.09 225.74 346.07 221.65 355.09 219.54 364.12 218.45 374.15 219.4 385.13 222.46" stroke-dasharray="2 0" transform="rotate(44.44, 400, 400)" opacity="0.96"></path><path d="M393.05 233.19C403.51 236.81 414.62 241.89 426.28 248.07 438.05 254.33 450.48 261.33 463.38 268.78 476.36 275.85 489.64 283.19 502.73 290.68 515.27 297.61 526.84 304.71 536.59 311.96 544.56 318.73 549.69 325.81 551.42 333.23 550.88 340.34 547.21 347.97 541.05 356.14 534.84 364.16 528.54 372.85 523.61 382.23 522.35 391.55 524.45 401.64 530.01 412.47 539.25 423.3 549.39 434.4 558.62 445.6 566.72 456.8 571.08 468.08 571.13 479.21 567.77 490.25 560.29 501 549.67 511.18 537.16 521.04 523.23 530.06 508.94 537.91 494.83 545.1 481.32 550.82 468.73 554.79 457 557.88 446.07 559.09 435.78 558.36 426.03 556.91 416.46 553.79 406.87 549.2 397.42 544.65 387.67 539.29 377.6 533.49 367.54 528.78 357.65 524.43 348.13 520.63 338.73 518.27 329.9 516.36 321.94 514.74 311.02 513.84 295.62 510.9 291.12 507.58 288.31 504.98 286.05 501.17 284 496.14 280.75 490.9 277 484.45 272.53 476.91 266.42 469.2 259.69 460.51 252.77 450.98 245.43 441.4 239.18 431.07 234.91 420.12 232.34 409.16 232.86 398.13 236.31 387.13 241.53 376.13 248.91 365.12 257.68 354.22 266.64 343.26 275.89 332.35 284.93 321.63 292.92 310.87 300.39 300.31 307.36 290.15 313.22 280.1 318.97 270.59 324.85 261.89 330.13 253.59 336 246.35 342.63 240.48 349.07 235.33 356.46 231.78 364.86 230.05 373.2 229.22 382.6 230.24 393.05 233.19" stroke-dasharray="2 9" transform="rotate(48.48, 400, 400)" opacity="0.36"></path><path d="M402.1 243.91C412.02 247.33 422.58 252.09 433.62 257.88 444.71 263.78 456.29 270.4 468.1 277.51 479.79 284.34 491.41 291.49 502.47 298.81 512.8 305.69 521.85 312.76 528.97 319.97 534.48 326.78 537.41 333.85 537.46 341.2 535.89 348.26 531.95 355.75 526.27 363.69 521.01 371.47 515.98 379.82 512.31 388.74 511.89 397.61 514.26 407.12 519.47 417.24 527.79 427.37 536.87 437.66 545.29 447.97 553.02 458.26 557.77 468.51 558.97 478.54 557.42 488.44 552.19 497.97 543.95 506.87 533.78 515.44 521.86 523.17 509.09 529.75 496.02 535.76 483.04 540.41 470.58 543.49 458.6 545.85 447.27 546.57 436.58 545.61 426.32 544.12 416.43 541.19 406.82 536.99 397.35 532.89 387.93 528.05 378.56 522.77 369.2 518.41 360.31 514.27 352.02 510.53 343.8 508 336.31 505.8 329.74 503.82 320.65 502.22 307.85 498.33 303.75 494.99 299.54 490.8 289.58 477.06 282.42 467.48 276.07 460.65 269.28 452.86 262.49 444.24 255.47 435.57 249.54 426.14 245.45 416.03 242.9 405.92 243.14 395.64 246.05 385.33 250.62 375.01 257.27 364.64 265.37 354.34 273.87 344.02 282.9 333.74 291.96 323.66 300.31 313.6 308.31 303.77 315.9 294.37 322.52 285.12 328.94 276.45 335.34 268.58 341.1 261.12 347.21 254.68 353.85 249.52 360.22 245.02 367.36 241.99 375.36 240.61 383.28 240.01 392.18 241.09 402.1 243.91" stroke-dasharray="8 1" transform="rotate(52.52, 400, 400)" opacity="0.77"></path><path d="M410.8 254.64C420.15 257.84 429.98 262.27 440.12 267.65 450.25 273.16 460.62 279.38 470.93 286.1 481.01 292.62 490.7 299.49 499.54 306.58 507.62 313.32 514.29 320.27 519.06 327.37 522.54 334.13 523.78 341.13 522.69 348.35 520.59 355.33 516.76 362.65 511.8 370.33 507.57 377.87 503.77 385.87 501.25 394.32 501.53 402.72 504.09 411.64 508.93 421.04 516.38 430.44 524.44 439.89 532.01 449.26 539.26 458.61 544.16 467.82 546.21 476.72 546.1 485.49 542.83 493.82 536.81 501.47 528.98 508.84 519.26 515.35 508.36 520.79 496.86 525.75 485 529.47 473.29 531.79 461.72 533.56 450.55 533.9 439.94 532.8 429.59 531.33 419.67 528.63 410.2 524.83 400.85 521.16 391.77 516.83 383.03 512.04 374.29 508.04 366.24 504.14 358.95 500.49 351.68 497.86 345.23 495.43 339.67 493.17 331.85 490.97 320.42 486.14 316.2 482.67 311.41 478.64 299.71 466.14 291.88 457.56 285.4 451.46 278.68 444.48 272.11 436.69 265.45 428.87 259.87 420.29 255.99 411.03 253.47 401.76 253.46 392.28 255.86 382.71 259.76 373.15 265.63 363.51 272.96 353.91 280.85 344.32 289.44 334.79 298.28 325.46 306.72 316.19 315.01 307.18 323 298.61 330.25 290.24 337.29 282.44 344.21 275.43 350.55 268.81 357.06 263.16 363.89 258.7 370.42 254.82 377.52 252.28 385.29 251.22 392.97 250.83 401.46 251.96 410.8 254.64" stroke-dasharray="3 4" transform="rotate(56.56, 400, 400)" opacity="0.32"></path><path d="M417.74 265.36C426.45 268.34 435.39 272.43 444.41 277.39 453.39 282.49 462.32 288.28 470.93 294.55 479.26 300.71 486.95 307.24 493.64 314 499.65 320.52 504.24 327.26 507.12 334.15 509.04 340.78 509.14 347.62 507.43 354.64 505.21 361.47 501.81 368.58 497.73 375.95 494.56 383.21 491.91 390.82 490.4 398.77 491.25 406.68 493.93 414.98 498.39 423.63 505 432.28 512.09 440.88 518.82 449.3 525.47 457.7 530.32 465.86 532.91 473.65 533.91 481.32 532.26 488.49 528.2 494.98 522.56 501.23 515.04 506.65 506.19 511.07 496.58 515.11 486.31 518.05 475.83 519.75 465.26 521.05 454.81 521.12 444.73 519.96 434.77 518.56 425.19 516.11 416.09 512.71 407.06 509.47 398.43 505.62 390.27 501.32 382.11 497.66 374.76 494.01 368.23 490.51 358.8 486.54 343.91 480.08 338.25 477.07 332.78 474.39 322.53 466.75 316.75 461.33 311.86 457.49 306.57 452.83 300.92 447.39 294.44 441.91 287.88 435.64 281.61 428.62 275.38 421.58 270.18 413.82 266.53 405.4 264.07 396.98 263.83 388.32 265.73 379.55 268.97 370.8 274.04 361.96 280.53 353.16 287.67 344.39 295.63 335.68 304.01 327.19 312.26 318.79 320.54 310.67 328.68 303 336.31 295.53 343.78 288.63 351.1 282.49 357.96 276.71 364.86 271.83 371.91 268.03 378.69 264.74 385.84 262.65 393.43 261.89 400.94 261.69 409.03 262.83 417.74 265.36" stroke-dasharray="8 2" transform="rotate(60.599999999999994, 400, 400)" opacity="0.42"></path><path d="M421.77 276.09C429.76 278.84 437.72 282.57 445.51 287.1 453.23 291.77 460.66 297.09 467.56 302.88 474.19 308.62 480.04 314.73 484.83 321.1 489.09 327.3 492.05 333.74 493.55 340.32 494.43 346.72 493.88 353.31 492.02 360.05 490.02 366.65 487.26 373.46 484.16 380.46 482.02 387.38 480.41 394.56 479.76 401.97 481.06 409.35 483.79 417.01 487.86 424.89 493.67 432.77 499.84 440.49 505.72 447.97 511.71 455.42 516.33 462.57 519.2 469.29 520.96 475.91 520.57 482.01 518.14 487.44 514.43 492.67 508.98 497.12 502.17 500.67 494.58 503.93 486.14 506.22 477.25 507.44 468.09 508.37 458.81 508.26 449.69 507.12 440.55 505.83 431.67 503.65 423.19 500.65 414.75 497.82 406.69 494.42 399.11 490.59 391.53 487.29 384.75 483.91 378.75 480.58 370.05 476.59 355.95 469.57 350.2 466.2 344.37 463.15 332.67 455.31 326.07 450.13 320.82 446.52 315.28 442.24 309.53 437.29 303.19 432.33 296.92 426.68 291.03 420.36 285.26 414.03 280.47 407.05 277.07 399.47 274.69 391.88 274.26 384.06 275.69 376.14 278.29 368.24 282.55 360.26 288.15 352.32 294.43 344.43 301.59 336.62 309.3 329.04 317.07 321.56 325.06 314.37 333.04 307.62 340.73 301.08 348.35 295.08 355.85 289.79 363.01 284.83 370.16 280.69 377.33 277.52 384.29 274.79 391.44 273.12 398.82 272.61 406.12 272.58 413.78 273.72 421.77 276.09" stroke-dasharray="9 7" transform="rotate(64.64, 400, 400)" opacity="0.24"></path><path d="M422.23 286.81C429.43 289.32 436.36 292.7 442.91 296.79 449.4 301.01 455.41 305.84 460.75 311.11 465.88 316.37 470.18 322.01 473.48 327.91 476.41 333.7 478.23 339.74 478.86 345.93 479.18 351.99 478.44 358.23 476.78 364.59 475.26 370.85 473.27 377.28 471.16 383.84 469.96 390.34 469.26 397.03 469.32 403.85 470.95 410.66 473.64 417.63 477.32 424.72 482.38 431.81 487.66 438.67 492.73 445.22 498 451.75 502.24 457.93 505.16 463.66 507.62 471.86 502.79 485.04 496.04 489.67 490.42 492.28 483.86 494.04 476.7 494.9 469.21 495.57 461.4 495.37 453.52 494.29 445.56 493.14 437.68 491.24 430.04 488.65 422.41 486.2 415.06 483.25 408.09 479.87 401.12 476.91 394.84 473.82 389.22 470.7 381 466.78 367.09 459.45 361.01 455.82 354.69 452.48 341.65 444.44 334.46 439.44 329.02 436.02 323.41 432.04 317.73 427.52 311.67 423 305.79 417.9 300.35 412.24 295.1 406.57 290.74 400.33 287.61 393.56 285.34 386.79 284.74 379.83 285.75 372.78 287.74 365.76 291.21 358.67 295.89 351.65 301.24 344.68 307.48 337.81 314.34 331.18 321.4 324.64 328.79 318.4 336.32 312.59 343.74 306.97 351.18 301.86 358.54 297.4 365.71 293.22 372.85 289.77 379.93 287.2 386.88 284.97 393.88 283.68 400.92 283.4 407.92 283.5 415.04 284.62 422.23 286.81" stroke-dasharray="3 2" transform="rotate(68.68, 400, 400)" opacity="0.15"></path><path d="M419.06 297.54C431.76 302.26 442.63 309.84 450.92 319.25 458.63 328.72 463 339.54 463.67 351 463.97 362.15 461.82 374 458.78 386.11 458.98 398.08 461.47 410.57 466.78 423.15 476.32 435.72 485.14 447.14 490.93 456.83 495.07 466.27 493.79 473.59 487.74 478.18 479.44 482.21 467.96 483.37 455.14 481.51 441.84 479.56 428.35 475.3 415.75 469.14 403.14 464.28 392.44 458.81 383.47 453.17 373.91 448.99 365.13 444.11 356.68 438.38 346.63 433.31 336.1 426.66 325.56 418.35 314.2 410.12 304.38 399.95 298.15 388.02 294.68 376.09 296.92 363.6 303.85 351.39 313.14 339.37 325.38 327.93 338.84 318 352.47 308.7 366.39 301.43 379.89 297.05 393.15 293.81 406.35 293.81 419.06 297.54" stroke-dasharray="11 2" transform="rotate(72.72, 400, 400)" opacity="0.70"></path><path d="M412.76 308.26C423.72 312.43 432.56 319.06 438.89 327.31 444.91 335.69 448.13 345.35 448.6 355.62 449.27 365.74 448.37 376.47 447.05 387.37 448.43 398.18 451.42 409.3 456.24 420.25 464.24 431.21 471.55 440.91 476.6 448.94 480.96 459.76 467.93 469.98 453.75 468.8 443.26 467.21 431.98 463.67 420.82 458.42 409.66 454.15 399.61 449.12 390.63 443.78 381.2 439.53 372.1 434.6 363.19 428.96 353.2 423.89 342.95 417.57 333.07 410 322.86 402.52 314.2 393.53 308.69 383.16 305.37 372.8 306.75 362.11 312.08 351.77 319.42 341.6 329.55 332.06 341.05 323.92 353.04 316.29 365.56 310.46 377.76 307.11 389.93 304.63 401.81 304.88 412.76 308.26" stroke-dasharray="8 2" transform="rotate(76.76, 400, 400)" opacity="0.96"></path><path d="M404.38 318.99C413.58 322.59 420.77 328.26 425.78 335.32 430.68 342.54 433.43 350.92 434.24 359.87 435.54 368.76 435.88 378.21 436 387.73 438.2 397.22 441.44 406.87 445.7 416.21 452.26 425.54 458.13 433.64 462.31 440.19 466.75 449.01 459.36 457.16 449.03 456.18 441.15 454.95 432.09 452.08 422.49 447.69 412.89 444.02 403.66 439.53 394.95 434.61 385.95 430.48 376.98 425.69 368.15 420.31 358.69 415.37 349.19 409.47 340.3 402.66 331.42 395.95 324 388.09 319.23 379.26 316.13 370.43 316.79 361.49 320.67 352.99 326.14 344.61 334.07 336.89 343.39 330.42 353.32 324.35 363.93 319.82 374.38 317.37 384.94 315.54 395.17 315.98 404.38 318.99" stroke-dasharray="7 1" transform="rotate(80.80000000000001, 400, 400)" opacity="0.39"></path><path d="M395.27 329.71C402.78 332.73 408.64 337.43 412.82 343.29 417.01 349.3 419.7 356.32 421.11 363.83 423.05 371.36 424.41 379.36 425.62 387.39 428.29 395.42 431.51 403.52 435.16 411.24 447.84 437.21 431.94 441.65 420.48 436.97 412.51 433.89 404.38 430.01 396.36 425.65 388.2 421.82 379.89 417.36 371.72 412.43 363.28 407.8 354.95 402.45 347.34 396.47 339.91 390.57 333.77 383.87 329.77 376.55 326.97 369.22 327.07 361.97 329.67 355.2 333.44 348.53 339.26 342.5 346.35 337.56 354 332.9 362.41 329.52 370.84 327.83 379.41 326.57 387.76 327.11 395.27 329.71" stroke-dasharray="1 2" transform="rotate(84.84, 400, 400)" opacity="1.00"></path><path d="M386.94 340.44C398.71 345.52 406.09 355.65 409.61 367.62 414.87 379.74 419.77 393.37 424.62 405.63 435.76 422.07 431.67 432.59 415.11 426.24 402.51 421.67 388.02 414.1 374.22 405.3 360.19 397.28 347.36 386.86 340.31 375.16 336.38 363.46 340.85 352.71 350.36 345.37 361.58 338.72 375.17 336.43 386.94 340.44" stroke-dasharray="5 2" transform="rotate(88.88, 400, 400)" opacity="0.42"></path><path d="M380.75 351.16C389.44 354.96 395.84 362.45 399.99 371.35 405.24 380.39 410.11 390.59 414.08 399.7 421.76 411.9 419.18 420.01 407.27 415.52 397.99 412.01 386.75 405.96 376.04 398.89 365.51 392.24 356.06 383.96 350.85 375.19 347.46 366.41 349.78 358.79 355.78 353.87 362.83 349.32 372.05 347.99 380.75 351.16" stroke-dasharray="8 1" transform="rotate(92.92, 400, 400)" opacity="0.30"></path><path d="M377.71 361.89C389.21 367.15 398.92 381.74 403.55 393.79 411.84 405.83 410.33 410.41 398.23 404.79 386.13 400.36 368.85 388.35 361.39 376.63 357.23 364.89 366.19 357.74 377.71 361.89" stroke-dasharray="2 8" transform="rotate(96.96, 400, 400)" opacity="0.16"></path></g></svg>