<?xml version="1.0" encoding="UTF-8" standalone="no"?>
<svg
   version="1.0"
   width="92mm"
   height="24mm"
   id="svg47"
   sodipodi:docname="dowslake.emf"
   xmlns:inkscape="http://www.inkscape.org/namespaces/inkscape"
   xmlns:sodipodi="http://sodipodi.sourceforge.net/DTD/sodipodi-0.dtd"
   xmlns="http://www.w3.org/2000/svg"
   xmlns:svg="http://www.w3.org/2000/svg">
  <sodipodi:namedview
     id="namedview49"
     pagecolor="#ffffff"
     bordercolor="#000000"
     borderopacity="0.25"
     inkscape:showpageshadow="2"
     inkscape:pageopacity="0.0"
     inkscape:pagecheckerboard="0"
     inkscape:deskcolor="#d1d1d1"
     inkscape:document-units="mm" />
  <defs
     id="defs3">
    <pattern
       id="EMFhbasepattern"
       patternUnits="userSpaceOnUse"
       width="6"
       height="6"
       x="0"
       y="0" />
  </defs>
  <path
     style="fill:#ff0000;fill-rule:nonzero;fill-opacity:1;stroke:none;"
     d="  M 0.31999763,0.23999822   L 16.23988,0.23999822   C 22.719832,0.23999822 27.599796,1.1199917 30.719772,2.9599781   C 33.919749,4.719965 36.799727,7.5199443 39.279709,11.439915   C 41.83969,15.279887 43.119681,20.23985 43.119681,26.159806   C 43.119681,33.599751 40.879697,39.839705 36.47973,44.879668   C 32.079762,49.839631 25.999807,52.319612 18.239865,52.319612   L 0.31999763,52.319612   z  M 12.319909,9.8399271   L 12.319909,42.559685   L 17.359871,42.559685   C 21.839838,42.559685 25.119814,40.879697 27.279798,37.599721   C 29.439782,34.239746 30.559774,30.319775 30.559774,25.839809   C 30.559774,22.719832 29.919778,19.759854 28.639788,17.119873   C 27.439797,14.399893 25.919808,12.479908 24.079822,11.439915   C 22.239835,10.319924 19.999852,9.8399271 17.439871,9.8399271   z "
     id="path5" />
  <path
     style="fill:#ff0000;fill-rule:nonzero;fill-opacity:1;stroke:none;"
     d="  M 66.479508,12.959904   C 72.399464,12.959904 76.95943,14.87989 80.239406,18.719861   C 83.519381,22.559833 85.199369,27.359797 85.199369,33.199754   C 85.199369,38.879712 83.519381,43.599677 80.079407,47.439649   C 76.639432,51.27962 72.079466,53.119607 66.399508,53.119607   C 60.959548,53.119607 56.479582,51.27962 53.199606,47.519648   C 49.91963,43.759676 48.319642,38.879712 48.319642,32.959756   C 48.319642,28.879786 49.039637,25.439812 50.479626,22.559833   C 51.999615,19.679854 54.079599,17.359871 56.63958,15.599884   C 59.279561,13.839897 62.559537,12.959904 66.479508,12.959904   z  M 66.799505,20.399849   C 64.639521,20.399849 63.039533,21.279842 61.919541,22.95983   C 60.79955,24.559818 60.239554,27.919793 60.239554,32.879756   C 60.239554,37.439723 60.79955,40.719698 61.839542,42.719684   C 62.879534,44.639669 64.479522,45.679662 66.719506,45.679662   C 68.639492,45.679662 70.23948,44.799668 71.439471,43.119681   C 72.639462,41.439693 73.199458,38.239717 73.199458,33.439752   C 73.199458,28.39979 72.719461,24.959815 71.59947,23.119829   C 70.559477,21.359842 68.959489,20.399849 66.799505,20.399849   z "
     id="path7" />
  <path
     style="fill:#ff0000;fill-rule:nonzero;fill-opacity:1;stroke:none;"
     d="  M 142.71894,13.759898   L 131.11903,52.319612   L 121.0391,52.319612   L 114.95915,27.519796   L 108.87919,52.319612   L 99.279265,52.319612   L 87.439352,13.759898   L 99.279265,13.759898   L 105.59922,37.359723   L 111.43917,13.759898   L 121.7591,13.759898   L 127.43906,37.519722   L 133.91901,13.759898   z "
     id="path9" />
  <path
     style="fill:#ff0000;fill-rule:nonzero;fill-opacity:1;stroke:none;"
     d="  M 176.95869,23.119829   L 168.71875,25.279813   C 167.75876,21.839838 165.19878,20.079851 161.19881,20.079851   C 157.35883,20.079851 155.43885,21.199843 155.43885,23.519826   C 155.43885,24.479819 155.75885,25.199813 156.47884,25.759809   C 157.19884,26.319805 159.03882,26.719802 161.9988,27.119799   C 166.39877,27.759794 169.59874,28.39979 171.75873,29.199784   C 173.83871,29.919778 175.5187,31.199769 176.71869,33.039755   C 177.99868,34.799742 178.63868,37.039726 178.63868,39.679706   C 178.63868,43.679676 177.11869,46.879653 174.07871,49.439634   C 171.03873,51.919615 166.87876,53.119607 161.4388,53.119607   C 151.59888,53.119607 145.75892,49.359634 143.83893,41.759691   L 153.43886,40.319701   C 154.23886,43.759676 157.03884,45.519663 161.9988,45.519663   C 163.83879,45.519663 165.43877,45.199665 166.71877,44.479671   C 168.07875,43.839675 168.71875,42.879682 168.71875,41.759691   C 168.71875,39.999704 167.27876,38.959711 164.39878,38.559714   C 156.55884,37.599721 151.43888,36.159732 148.9589,34.159747   C 146.55891,32.079762 145.35892,29.279783 145.35892,25.67981   C 145.35892,21.999837 146.71891,18.95986 149.59889,16.559877   C 152.47887,14.159895 156.47884,12.959904 161.5988,12.959904   C 165.67877,12.959904 168.95875,13.759898 171.35873,15.359886   C 173.83871,16.959874 175.6787,19.519855 176.95869,23.119829   z "
     id="path11" />
  <path
     style="fill:#000080;fill-rule:nonzero;fill-opacity:1;stroke:none;"
     d="  M 197.99853,41.999689   L 218.71838,41.999689   L 218.71838,52.319612   L 185.59863,52.319612   L 185.59863,0.23999822   L 197.99853,0.23999822   z "
     id="path13" />
  <path
     style="fill:#000080;fill-rule:nonzero;fill-opacity:1;stroke:none;"
     d="  M 258.15809,52.319612   L 247.11817,52.319612   C 246.79817,50.799624 246.63817,48.799639 246.63817,46.319657   C 244.63819,49.039637 242.7182,50.879623 240.79822,51.839616   C 238.87823,52.719609 236.71825,53.119607 234.23826,53.119607   C 230.63829,53.119607 227.75831,52.159614 225.51833,50.239628   C 223.27835,48.239643 222.15835,45.599662 222.15835,42.319687   C 222.15835,39.919704 222.79835,37.679721 224.07834,35.599736   C 225.43833,33.599751 227.51831,31.999763 230.39829,30.879771   C 233.27827,29.67978 238.47823,28.799787 246.07818,28.239791   L 246.07818,25.999807   C 246.07818,22.319835 244.23819,20.399849 240.47822,20.399849   C 236.47825,20.399849 234.23826,22.319835 233.83827,25.999807   L 223.27835,25.039815   C 223.99834,20.639847 226.07833,17.51987 229.5183,15.679884   C 232.95827,13.919897 236.87825,12.959904 241.27821,12.959904   C 243.91819,12.959904 246.39817,13.279902 248.71816,13.919897   C 251.03814,14.479893 252.79813,15.439886 254.15812,16.639877   C 255.43811,17.839868 256.3181,19.119858 256.7981,20.559848   C 257.19809,21.919838 257.43809,24.23982 257.43809,27.599796   L 257.43809,45.119666   C 257.43809,48.479641 257.67809,50.879623 258.15809,52.319612   z  M 246.07818,33.839749   C 238.15824,34.639743 234.15827,37.039726 234.15827,41.039696   C 234.15827,42.399686 234.55826,43.599677 235.43826,44.55967   C 236.23825,45.519663 237.43824,46.079659 239.03823,46.079659   C 241.03821,46.079659 242.7182,45.199665 244.07819,43.599677   C 245.43818,41.83969 246.07818,39.839705 246.07818,37.359723   z "
     id="path15" />
  <path
     style="fill:#000080;fill-rule:nonzero;fill-opacity:1;stroke:none;"
     d="  M 292.23784,26.799801   L 304.87774,52.319612   L 292.23784,52.319612   L 284.23789,34.879742   L 277.51794,42.479685   L 277.51794,52.319612   L 266.79802,52.319612   L 266.79802,0.23999822   L 277.51794,0.23999822   L 277.51794,31.439767   L 279.19793,29.359783   C 279.91793,28.39979 280.55792,27.599796 281.03792,27.0398   L 292.23784,13.759898   L 303.35775,13.759898   z "
     id="path17" />
  <path
     style="fill:#000080;fill-rule:nonzero;fill-opacity:1;stroke:none;"
     d="  M 342.95746,34.959741   L 318.15764,34.959741   C 318.15764,35.679736 318.07764,36.239732 318.07764,36.799727   C 318.07764,39.519707 318.79764,41.599692 320.31763,42.959682   C 321.75762,44.399671 323.5176,45.119666 325.59759,45.119666   C 329.35756,45.119666 331.59754,43.039681 332.39754,39.039711   L 342.71746,39.759705   C 339.83748,48.719639 333.99753,53.119607 325.19759,53.119607   C 321.35762,53.119607 318.07764,52.399612 315.35766,50.879623   C 312.71768,49.279635 310.4777,47.039652 308.71771,44.079673   C 306.95773,41.119695 306.15773,37.599721 306.15773,33.439752   C 306.15773,27.359797 307.83772,22.399834 311.35769,18.639862   C 314.87767,14.87989 319.35763,12.959904 324.87759,12.959904   C 329.83756,12.959904 334.07753,14.719891 337.5975,18.239865   C 341.19747,21.759839 342.95746,27.279798 342.95746,34.959741   z  M 318.07764,28.39979   L 331.83754,28.39979   C 331.43754,23.039829 329.27756,20.399849 325.27759,20.399849   C 321.03762,20.399849 318.63764,23.039829 318.07764,28.39979   z "
     id="path19" />
  <path
     style="fill:#000080;fill-rule:nonzero;fill-opacity:1;stroke:none;"
     d="  M 0.55999585,61.199547   L 342.71746,61.199547   L 342.71746,87.599351   L 0.55999585,87.599351   z "
     id="path21" />
  <path
     style="fill:#ffffff;fill-rule:nonzero;fill-opacity:1;stroke:none;"
     d="  M 22.319835,67.999496   L 22.319835,80.9594   L 19.279857,80.9594   L 19.279857,67.999496   L 9.8399271,67.999496   L 9.8399271,66.799505   L 31.839764,66.799505   L 31.839764,67.999496   z "
     id="path23" />
  <path
     style="fill:#ffffff;fill-rule:nonzero;fill-opacity:1;stroke:none;"
     d="  M 37.279724,80.9594   L 37.279724,66.799505   L 53.359605,66.799505   L 53.359605,67.999496   L 40.319701,67.999496   L 40.319701,73.199458   L 52.399612,73.199458   L 52.399612,74.399449   L 40.319701,74.399449   L 40.319701,79.759409   L 54.079599,79.759409   L 54.079599,80.9594   z "
     id="path25" />
  <path
     style="fill:#ffffff;fill-rule:nonzero;fill-opacity:1;stroke:none;"
     d="  M 83.199384,80.399404   C 80.639403,80.9594 77.679425,81.199399 74.479448,81.199399   C 72.159465,81.199399 69.999481,81.0394 68.079496,80.639403   C 66.239509,80.319405 64.559522,79.839409 63.199532,79.199413   C 61.919541,78.559418 60.879549,77.839423 60.159554,76.95943   C 59.43956,76.079436 59.039563,75.199443 59.039563,74.159451   C 59.039563,73.039459 59.43956,72.079466 60.239554,71.119473   C 60.959548,70.23948 62.07954,69.439486 63.519529,68.719491   C 64.959519,68.079496 66.719506,67.5195 68.719491,67.119503   C 70.799476,66.719506 73.119458,66.559507 75.679439,66.559507   C 78.479419,66.559507 80.9594,66.719506 83.199384,67.119503   L 83.199384,68.479493   C 80.799401,67.999496 78.31942,67.759498 75.59944,67.759498   C 73.439456,67.759498 71.59947,67.919497 69.919482,68.239495   C 68.239495,68.559492 66.879505,68.959489 65.759513,69.519485   C 64.639521,70.079481 63.759528,70.799476 63.119532,71.51947   C 62.559537,72.319464 62.239539,73.119458 62.239539,74.079451   C 62.239539,74.879445 62.479537,75.59944 63.039533,76.399434   C 63.599529,77.039429 64.399523,77.679425 65.439515,78.23942   C 66.479508,78.799416 67.759498,79.199413 69.359486,79.519411   C 70.879475,79.839409 72.719461,79.999407 74.799446,79.999407   C 77.999422,79.999407 80.719402,79.67941 83.199384,79.119414   z "
     id="path27" />
  <path
     style="fill:#ffffff;fill-rule:nonzero;fill-opacity:1;stroke:none;"
     d="  M 111.27918,80.9594   L 111.27918,74.319449   L 93.279309,74.319449   L 93.279309,80.9594   L 90.239332,80.9594   L 90.239332,66.799505   L 93.279309,66.799505   L 93.279309,73.119458   L 111.27918,73.119458   L 111.27918,66.799505   L 114.31915,66.799505   L 114.31915,80.9594   z "
     id="path29" />
  <path
     style="fill:#ffffff;fill-rule:nonzero;fill-opacity:1;stroke:none;"
     d="  M 145.43892,80.9594   L 127.11906,69.599484   C 126.95906,69.439486 126.71906,69.279487 126.47906,69.119488   C 126.23906,68.959489 126.07907,68.87949 125.91907,68.719491   L 125.83907,68.719491   C 125.83907,68.79949 125.83907,68.959489 125.91907,69.199487   C 125.91907,69.439486 125.91907,69.679484 125.91907,69.999481   L 125.91907,80.9594   L 122.87909,80.9594   L 122.87909,66.799505   L 126.23906,66.799505   L 144.23893,77.999422   C 144.55893,78.159421 144.79893,78.399419 144.95893,78.559418   C 145.19892,78.639417 145.43892,78.799416 145.59892,78.959415   L 145.75892,78.959415   C 145.67892,78.719417 145.59892,78.479419 145.59892,78.23942   C 145.51892,77.919423 145.51892,77.679425 145.51892,77.279428   L 145.51892,66.799505   L 148.6389,66.799505   L 148.6389,80.9594   z "
     id="path31" />
  <path
     style="fill:#ffffff;fill-rule:nonzero;fill-opacity:1;stroke:none;"
     d="  M 170.55874,81.199399   C 168.23875,81.199399 166.07877,81.0394 164.15878,80.639403   C 162.2388,80.239406 160.63881,79.759409 159.35882,79.119414   C 157.99883,78.479419 156.95884,77.679425 156.23884,76.879431   C 155.59885,75.999437 155.19885,75.039444 155.19885,73.999452   C 155.19885,72.95946 155.59885,71.919467 156.23884,70.959474   C 156.95884,70.079481 157.99883,69.279487 159.35882,68.639492   C 160.71881,67.999496 162.3988,67.4395 164.39878,67.119503   C 166.39877,66.719506 168.63875,66.559507 171.19873,66.559507   C 173.51871,66.559507 175.5987,66.719506 177.43869,67.119503   C 179.27867,67.4395 180.87866,67.919497 182.15865,68.559492   C 183.43864,69.199487 184.47863,69.999481 185.11863,70.799476   C 185.83862,71.679469 186.23862,72.639462 186.23862,73.679454   C 186.23862,74.719447 185.83862,75.759439 185.19863,76.639432   C 184.47863,77.599425 183.51864,78.399419 182.15865,79.039415   C 180.87866,79.67941 179.19867,80.239406 177.27869,80.639403   C 175.3587,81.0394 173.11872,81.199399 170.55874,81.199399   z  M 170.87873,67.759498   C 168.87875,67.759498 167.03876,67.919497 165.51877,68.239495   C 163.99879,68.559492 162.71879,69.039489 161.6788,69.599484   C 160.55881,70.079481 159.75882,70.799476 159.19882,71.51947   C 158.71882,72.239465 158.39883,73.039459 158.39883,73.919452   C 158.39883,74.719447 158.63882,75.439441 159.11882,76.239435   C 159.59882,76.95943 160.39881,77.599425 161.3588,78.159421   C 162.3988,78.719417 163.67879,79.199413 165.19878,79.519411   C 166.71877,79.839409 168.47875,79.999407 170.55874,79.999407   C 172.63872,79.999407 174.39871,79.839409 175.9987,79.519411   C 177.51869,79.279413 178.79868,78.799416 179.83867,78.23942   C 180.87866,77.759424 181.67865,77.119429 182.23865,76.319435   C 182.71865,75.59944 183.03864,74.799446 183.03864,73.839453   C 183.03864,73.039459 182.79865,72.239465 182.31865,71.51947   C 181.83865,70.799476 181.11866,70.079481 180.15867,69.599484   C 179.11867,69.039489 177.91868,68.559492 176.31869,68.239495   C 174.79871,67.919497 172.95872,67.759498 170.87873,67.759498   z "
     id="path33" />
  <path
     style="fill:#ffffff;fill-rule:nonzero;fill-opacity:1;stroke:none;"
     d="  M 192.79857,80.9594   L 192.79857,66.799505   L 195.91855,66.799505   L 195.91855,79.759409   L 209.11845,79.759409   L 209.11845,80.9594   z "
     id="path35" />
  <path
     style="fill:#ffffff;fill-rule:nonzero;fill-opacity:1;stroke:none;"
     d="  M 226.55832,81.199399   C 224.15834,81.199399 222.07835,81.0394 220.15837,80.639403   C 218.23838,80.239406 216.6384,79.759409 215.27841,79.119414   C 213.99841,78.479419 212.95842,77.679425 212.23843,76.879431   C 211.51843,75.999437 211.19844,75.039444 211.19844,73.999452   C 211.19844,72.95946 211.51843,71.919467 212.23843,70.959474   C 212.95842,70.079481 213.99841,69.279487 215.3584,68.639492   C 216.71839,67.999496 218.39838,67.4395 220.39837,67.119503   C 222.39835,66.719506 224.63834,66.559507 227.11832,66.559507   C 229.4383,66.559507 231.59828,66.719506 233.43827,67.119503   C 235.27826,67.4395 236.87825,67.919497 238.15824,68.559492   C 239.43823,69.199487 240.47822,69.999481 241.11821,70.799476   C 241.83821,71.679469 242.15821,72.639462 242.15821,73.679454   C 242.15821,74.719447 241.83821,75.759439 241.19821,76.639432   C 240.47822,77.599425 239.51823,78.399419 238.15824,79.039415   C 236.79825,79.67941 235.19826,80.239406 233.27827,80.639403   C 231.35829,81.0394 229.1183,81.199399 226.55832,81.199399   z  M 226.79832,67.759498   C 224.79833,67.759498 223.03835,67.919497 221.51836,68.239495   C 219.99837,68.559492 218.71838,69.039489 217.59839,69.599484   C 216.5584,70.079481 215.7584,70.799476 215.19841,71.51947   C 214.71841,72.239465 214.39841,73.039459 214.39841,73.919452   C 214.39841,74.719447 214.63841,75.439441 215.11841,76.239435   C 215.5984,76.95943 216.3984,77.599425 217.35839,78.159421   C 218.39838,78.719417 219.59837,79.199413 221.19836,79.519411   C 222.71835,79.839409 224.47834,79.999407 226.55832,79.999407   C 228.63831,79.999407 230.39829,79.839409 231.91828,79.519411   C 233.51827,79.279413 234.79826,78.799416 235.83825,78.23942   C 236.87825,77.759424 237.67824,77.119429 238.23824,76.319435   C 238.71823,75.59944 239.03823,74.799446 239.03823,73.839453   C 239.03823,73.039459 238.79823,72.239465 238.31823,71.51947   C 237.83824,70.799476 237.11824,70.079481 236.07825,69.599484   C 235.11826,69.039489 233.83827,68.559492 232.31828,68.239495   C 230.79829,67.919497 228.9583,67.759498 226.79832,67.759498   z "
     id="path37" />
  <path
     style="fill:#ffffff;fill-rule:nonzero;fill-opacity:1;stroke:none;"
     d="  M 273.03798,79.999407   C 269.678,80.799401 266.07803,81.199399 262.31806,81.199399   C 259.91807,81.199399 257.75809,81.0394 255.8381,80.639403   C 253.91812,80.319405 252.31813,79.839409 251.03814,79.199413   C 249.67815,78.559418 248.63816,77.839423 247.91816,76.95943   C 247.19817,76.079436 246.87817,75.119444 246.87817,74.079451   C 246.87817,73.359457 247.03817,72.719461 247.35817,72.079466   C 247.75816,71.439471 248.23816,70.799476 248.87816,70.23948   C 249.59815,69.679484 250.39815,69.199487 251.35814,68.719491   C 252.31813,68.319494 253.43812,67.919497 254.63811,67.599499   C 255.9181,67.279502 257.27809,66.959504 258.79808,66.799505   C 260.31807,66.639506 261.91806,66.559507 263.67805,66.559507   C 266.87802,66.559507 269.838,66.799505 272.39798,67.279502   L 272.39798,68.719491   C 269.518,68.079496 266.55803,67.759498 263.27805,67.759498   C 261.27806,67.759498 259.43808,67.919497 257.83809,68.239495   C 256.2381,68.559492 254.79811,68.959489 253.67812,69.519485   C 252.55813,70.079481 251.67814,70.719476 251.03814,71.51947   C 250.39815,72.239465 250.07815,73.039459 250.07815,73.919452   C 250.07815,74.799446 250.31815,75.59944 250.87814,76.399434   C 251.35814,77.119429 252.23813,77.759424 253.27812,78.31942   C 254.31812,78.799416 255.67811,79.279413 257.27809,79.519411   C 258.79808,79.839409 260.63807,79.999407 262.71805,79.999407   C 265.51803,79.999407 267.91802,79.759409 269.998,79.279413   L 269.998,74.959445   L 262.47806,74.959445   L 262.47806,73.759454   L 273.03798,73.759454   z "
     id="path39" />
  <path
     style="fill:#ffffff;fill-rule:nonzero;fill-opacity:1;stroke:none;"
     d="  M 283.7579,80.9594   L 280.71792,80.9594   L 280.71792,66.799505   L 283.7579,66.799505   z "
     id="path41" />
  <path
     style="fill:#ffffff;fill-rule:nonzero;fill-opacity:1;stroke:none;"
     d="  M 292.39783,80.9594   L 292.39783,66.799505   L 308.47771,66.799505   L 308.47771,67.999496   L 295.43781,67.999496   L 295.43781,73.199458   L 307.51772,73.199458   L 307.51772,74.399449   L 295.43781,74.399449   L 295.43781,79.759409   L 309.19771,79.759409   L 309.19771,80.9594   z "
     id="path43" />
  <path
     style="fill:#ffffff;fill-rule:nonzero;fill-opacity:1;stroke:none;"
     d="  M 314.79767,78.879416   C 315.35766,79.039415 315.99766,79.199413 316.63765,79.359412   C 317.27765,79.519411 317.99764,79.59941 318.71764,79.67941   C 319.35763,79.839409 320.07763,79.919408 320.79762,79.919408   C 321.51762,79.999407 322.15761,79.999407 322.79761,79.999407   C 325.27759,79.999407 327.19758,79.759409 328.39757,79.359412   C 329.67756,78.959415 330.31755,78.399419 330.31755,77.599425   C 330.31755,77.199428 330.15755,76.879431 329.83756,76.639432   C 329.59756,76.319435 329.11756,76.079436 328.47757,75.839438   C 327.91757,75.59944 327.11758,75.359442 326.15758,75.119444   C 325.27759,74.879445 324.1576,74.559448 322.87761,74.319449   C 321.43762,73.919452 320.23763,73.679454 319.19764,73.359457   C 318.23764,73.039459 317.43765,72.799461 316.79765,72.479463   C 316.15766,72.159465 315.67766,71.839468 315.35766,71.439471   C 315.11767,71.119473 314.95767,70.719476 314.95767,70.23948   C 314.95767,69.679484 315.19767,69.199487 315.75766,68.719491   C 316.31766,68.239495 317.11765,67.839497 318.07764,67.5195   C 319.03764,67.199502 320.15763,66.959504 321.43762,66.799505   C 322.79761,66.639506 324.1576,66.559507 325.59759,66.559507   C 328.23757,66.559507 330.39755,66.719506 332.15754,67.039503   L 332.15754,68.479493   C 330.15755,67.999496 327.91757,67.759498 325.27759,67.759498   C 324.3176,67.759498 323.3576,67.839497 322.47761,67.919497   C 321.67762,67.999496 320.87762,68.159495 320.23763,68.319494   C 319.59763,68.559492 319.03764,68.79949 318.71764,69.119488   C 318.31764,69.359486 318.15764,69.759483 318.15764,70.079481   C 318.15764,70.479478 318.23764,70.799476 318.47764,71.039474   C 318.79764,71.359471 319.19764,71.59947 319.67763,71.839468   C 320.31763,72.079466 321.03762,72.319464 321.91762,72.559463   C 322.87761,72.719461 323.9976,73.039459 325.27759,73.359457   C 326.63758,73.679454 327.83757,73.919452 328.87756,74.23945   C 329.91756,74.559448 330.79755,74.879445 331.43754,75.199443   C 332.15754,75.519441 332.63754,75.839438 332.95753,76.239435   C 333.27753,76.559433 333.51753,76.95943 333.51753,77.439426   C 333.51753,78.079422 333.19753,78.639417 332.63754,79.119414   C 332.15754,79.519411 331.35755,79.919408 330.39755,80.239406   C 329.43756,80.559403 328.31757,80.799401 326.95758,80.9594   C 325.67759,81.119399 324.1576,81.199399 322.55761,81.199399   C 322.07761,81.199399 321.43762,81.199399 320.71762,81.119399   C 319.99763,81.119399 319.27763,81.0394 318.55764,80.9594   C 317.83765,80.879401 317.11765,80.799401 316.39766,80.719402   C 315.75766,80.639403 315.19767,80.559403 314.79767,80.399404   z "
     id="path45" />
</svg>
